/* XPM */
static char *result[] = {
/* columns rows colors chars-per-pixel */
"16 16 94 2 ",
"   c #003154",
".  c #003254",
"X  c #003D5C",
"o  c #003D5E",
"O  c #00425F",
"+  c #004363",
"@  c #004663",
"#  c #004665",
"$  c #034863",
"%  c #004864",
"&  c #044965",
"*  c #054965",
"=  c #004969",
"-  c #004A69",
";  c #004B6A",
":  c #024C6A",
">  c #054E6C",
",  c #1C4161",
"<  c #124C69",
"1  c #1B526B",
"2  c #224D6B",
"3  c #294C6B",
"4  c #2A5471",
"5  c #2C5572",
"6  c #255A75",
"7  c #265E79",
"8  c #2A5C78",
"9  c #295D7C",
"0  c #365F7B",
"q  c #356582",
"w  c #3C6885",
"e  c #4D6A85",
"r  c #4C7183",
"t  c #577588",
"y  c #5B748B",
"u  c #58748D",
"i  c #64788F",
"p  c #6A7A91",
"a  c #6D7D93",
"s  c #657F98",
"d  c #528095",
"f  c #588095",
"g  c #558499",
"h  c #678291",
"j  c #648392",
"k  c #6D8197",
"l  c #618398",
"z  c #62859A",
"x  c #618A9D",
"c  c #688B9F",
"v  c #788C95",
"b  c #738A9F",
"n  c #648CA3",
"m  c #648DA3",
"M  c #738DA0",
"N  c #7695A6",
"B  c #7D93A5",
"V  c #7D94A6",
"C  c #7192A8",
"Z  c #7694AA",
"A  c #7D95AB",
"S  c #888A9E",
"D  c #838DA2",
"F  c #8D97A9",
"G  c #8099AB",
"H  c #8499AC",
"J  c #8AA2B1",
"K  c #8BA4B5",
"L  c #96A3B3",
"P  c #92A8B6",
"I  c #99A9B7",
"U  c #95ADBB",
"Y  c #9CA9B8",
"T  c #ABB6C3",
"R  c #AABFCC",
"E  c #B3C2CE",
"W  c #B6C1CC",
"Q  c #B9C0CB",
"!  c #B7C7D1",
"~  c #BEC9D2",
"^  c #C0C1CC",
"/  c #C3C2CD",
"(  c #C7C7D0",
")  c #C0CBD3",
"_  c #C5CBD3",
"`  c #C0CCD4",
"'  c #CECBD4",
"]  c #C5D0D8",
"[  c #D3D7DE",
"{  c #D4DAE0",
"}  c #DBDAE0",
"|  c #F4F4F9",
" . c #F7F6F8",
".. c None",
/* pixels */
"................................",
"................................",
"................................",
"................................",
"................................",
"..I i l N V 7   + > o # - : ; = ",
"[ S `  .F ) U k c < x f g 6 8 d ",
"e _ J 4 ] M G L a ~ ( z 3 T ^ 5 ",
"u W K 0 ! b P B y { / p , Q ' 2 ",
"} D Y | H E R A C 9 Z s m q w n ",
"..v t r j h 1 . O @ X * & % @ $ ",
"................................",
"................................",
"................................",
"................................",
"................................"
};
