/* XPM */
static char *result[] = {
/* columns rows colors chars-per-pixel */
"32 32 133 2 ",
"   c #000631",
".  c #00153D",
"X  c #001A42",
"o  c #002046",
"O  c #002D47",
"+  c #002549",
"@  c #012A4D",
"#  c #003149",
"$  c #002E53",
"%  c #013255",
"&  c #0A3054",
"*  c #013659",
"=  c #0A3558",
"-  c #013C5D",
";  c #0C3C5D",
":  c #18375A",
">  c #133D5E",
",  c #003F60",
"<  c #203F60",
"1  c #0F4C5F",
"2  c #024262",
"3  c #074967",
"4  c #0F4D60",
"5  c #00446B",
"6  c #044C6C",
"7  c #0B4C6A",
"8  c #124364",
"9  c #184766",
"0  c #104E61",
"q  c #154C6B",
"w  c #1A4968",
"e  c #06506E",
"r  c #0B516F",
"t  c #115062",
"y  c #11506D",
"u  c #1B516E",
"i  c #024D71",
"p  c #075174",
"a  c #0E5371",
"s  c #0B5679",
"d  c #135572",
"f  c #145A75",
"g  c #1B5875",
"h  c #155B7D",
"j  c #1D5C78",
"k  c #224262",
"l  c #2C4F6D",
"z  c #245270",
"x  c #2A5270",
"c  c #285B77",
"v  c #255D79",
"b  c #2D5E79",
"n  c #345774",
"m  c #3B5774",
"M  c #335C77",
"N  c #385A77",
"B  c #2F637D",
"V  c #37607B",
"C  c #39627C",
"Z  c #175E80",
"A  c #386A83",
"S  c #426C85",
"D  c #556983",
"F  c #46718A",
"G  c #4E768C",
"H  c #4D788F",
"J  c #567189",
"K  c #58718A",
"L  c #5F798F",
"P  c #567A91",
"I  c #5D7B92",
"U  c #63788F",
"Y  c #668297",
"T  c #6B8096",
"R  c #65869A",
"E  c #6C8A9E",
"W  c #76899E",
"Q  c #7594A5",
"!  c #7A92A5",
"~  c #7C9BAB",
"^  c #939494",
"/  c #AA9F9B",
"(  c #829BAC",
")  c #8B9DAD",
"_  c #899FB0",
"`  c #9FA2A8",
"'  c #8BA2B3",
"]  c #8EA9B7",
"[  c #8FABB8",
"{  c #95A4B3",
"}  c #95A8B6",
"|  c #96ADBC",
" . c #9BAEBC",
".. c #9DB1BE",
"X. c #A1AEBC",
"o. c #A4B1BE",
"O. c #A4BAC6",
"+. c #AAB8C4",
"@. c #ACBDC9",
"#. c #ACC1CB",
"$. c #B2C5CE",
"%. c #BAC5CF",
"&. c #BFC5D0",
"*. c #B7C8D1",
"=. c #BACAD3",
"-. c #C5C5CD",
";. c #C2CCD5",
":. c #CCCED6",
">. c #CBD4DB",
",. c #C7D8DF",
"<. c #D1D3DA",
"1. c #CFDDE2",
"2. c #DBDCE3",
"3. c #D7E1E7",
"4. c #DDE2E7",
"5. c #DCE4E9",
"6. c #ECE4E6",
"7. c #E2E5EA",
"8. c #E5E9ED",
"9. c #EDE8EC",
"0. c #F0EBEE",
"q. c #F5F0EF",
"w. c #E4EEF1",
"e. c #ECECF0",
"r. c #E7F3F5",
"t. c #EBF0F2",
"y. c #F6F3F5",
"u. c #FCF5F3",
"i. c #FCFAF7",
"p. c #FBF7F8",
"a. c #F1FAFC",
"s. c #FEFEFE",
"d. c None",
/* pixels */
"d.d.d.d.d.d.d.d.d.d.d.d.d.d.d.d.d.d.d.d.d.d.d.d.d.d.d.d.d.d.d.d.",
"d.d.d.d.d.d.d.d.d.d.d.d.d.d.d.d.d.d.d.d.d.d.d.d.d.d.d.d.d.d.d.d.",
"d.d.d.d.d.d.d.d.d.d.d.d.d.d.d.d.d.d.d.d.d.d.d.d.d.d.d.d.d.d.d.d.",
"d.d.d.d.d.d.d.d.d.d.d.d.d.d.d.d.d.d.d.d.d.d.d.d.d.d.d.d.d.d.d.d.",
"d.d.d.d.d.d.d.d.d.d.d.d.d.d.d.d.d.d.d.d.d.d.d.d.d.d.d.d.d.d.d.d.",
"d.d.d.d.d.d.d.d.d.d.d.d.d.d.d.d.d.d.d.d.d.d.d.d.d.d.d.d.d.d.d.d.",
"d.d.d.d.d.d.d.d.d.d.d.d.d.d.d.d.d.d.d.d.d.d.d.d.d.d.d.d.d.d.d.d.",
"d.d.d.d.d.d.d.d.d.d.d.d.d.d.d.d.d.d.d.d.d.d.d.d.d.d.d.d.d.d.d.d.",
"d.d.d.d.d.d.d.d.d.d.d.d.d.d.d.d.d.d.d.d.d.d.d.d.d.d.d.d.d.d.d.d.",
"d.d.d.d.d.d.d.d.d.d.d.d.d.d.d.d.d.d.d.d.d.d.d.d.d.d.d.d.d.d.d.d.",
"d.d.d.. * % % % % % % % * f d d d d d d d d d d d d d d d d d d ",
"s.s.q.o.@.| | | O.$.#...~ r 6 6 e d d d a 6 7 6 a r r d d a 6 d ",
"i.s.7.<.s.s.s.s.s.:.0.s.s.- * g q % a 6 2 d q d j j 2 7 d 2 g f ",
"s.W + k + ) s.X.@ k @ E 8.N :.8.w.] @ v >.8.5.8.x ( >.- $ +.;.- ",
"*.X *.s.} @ >.* ( s.,.@ R *.y.m D s.R E s.< z B 7 w s.I l s.S - ",
"' > s.s.a.q } u 2.s.s.N C $.>.@ . @.*.U e.U Q F 7 * S p.y.E $ d ",
"' ; s.s.a.8 } q 5.s.s.n C $.>.- + O.%.J p.%.=.( 3 - w s.s.S $ f ",
":..  .w.' 9 3.; U r.@.@ ! $.2.= > y.' E 9.X * , 5 = p.( J s.w 2 ",
"s.{ & g   I s.&.: q & { 1.Q s.2.t.<.% A i.5.5.5.x _ y.* o 2.2.* ",
"s.s.s.u.-.-.s.s.s.6.s.s.i.q M H S , 3 6 c H F G B F u 6 r 7 P f ",
"^ / ` ! [ ] E E ! ~ ~ Q R p 5 5 5 s Z h 5 5 5 5 s i i Z h p 5 h ",
"d.d.d.O # O # # # # # O # 0 0 4 0 t 1 0 4 t 4 t 1 0 0 1 1 1 t 1 ",
"d.d.d.d.d.d.d.d.d.d.d.d.d.d.d.d.d.d.d.d.d.d.d.d.d.d.d.d.d.d.d.d.",
"d.d.d.d.d.d.d.d.d.d.d.d.d.d.d.d.d.d.d.d.d.d.d.d.d.d.d.d.d.d.d.d.",
"d.d.d.d.d.d.d.d.d.d.d.d.d.d.d.d.d.d.d.d.d.d.d.d.d.d.d.d.d.d.d.d.",
"d.d.d.d.d.d.d.d.d.d.d.d.d.d.d.d.d.d.d.d.d.d.d.d.d.d.d.d.d.d.d.d.",
"d.d.d.d.d.d.d.d.d.d.d.d.d.d.d.d.d.d.d.d.d.d.d.d.d.d.d.d.d.d.d.d.",
"d.d.d.d.d.d.d.d.d.d.d.d.d.d.d.d.d.d.d.d.d.d.d.d.d.d.d.d.d.d.d.d.",
"d.d.d.d.d.d.d.d.d.d.d.d.d.d.d.d.d.d.d.d.d.d.d.d.d.d.d.d.d.d.d.d.",
"d.d.d.d.d.d.d.d.d.d.d.d.d.d.d.d.d.d.d.d.d.d.d.d.d.d.d.d.d.d.d.d.",
"d.d.d.d.d.d.d.d.d.d.d.d.d.d.d.d.d.d.d.d.d.d.d.d.d.d.d.d.d.d.d.d.",
"d.d.d.d.d.d.d.d.d.d.d.d.d.d.d.d.d.d.d.d.d.d.d.d.d.d.d.d.d.d.d.d."
};
