/* XPM */
static char *result[] = {
/* columns rows colors chars-per-pixel */
"64 64 142 2 ",
"   c #000D37",
".  c #00133B",
"X  c #0B3F3F",
"o  c #001D43",
"O  c #002146",
"+  c #00244A",
"@  c #002A4E",
"#  c #0B3E40",
"$  c #002D51",
"%  c #003356",
"&  c #0B3F55",
"*  c #003659",
"=  c #003C5D",
"-  c #0B3D5E",
";  c #143D5E",
":  c #003F60",
">  c #0B3F61",
",  c #0B4146",
"<  c #04425E",
"1  c #0A435E",
"2  c #024363",
"3  c #0A4463",
"4  c #034867",
"5  c #0B4967",
"6  c #034668",
"7  c #054C6B",
"8  c #0B4D6B",
"9  c #154564",
"0  c #1D4867",
"q  c #154E6C",
"w  c #07506E",
"e  c #0B516E",
"r  c #11526D",
"t  c #1D516E",
"y  c #045277",
"u  c #0B5371",
"i  c #0F5875",
"p  c #065478",
"a  c #0C5679",
"s  c #125673",
"d  c #1C5472",
"f  c #145A76",
"g  c #135979",
"h  c #1A5C7A",
"j  c #224C6B",
"k  c #22526E",
"l  c #225572",
"z  c #2C5270",
"x  c #235A76",
"c  c #2D5A76",
"v  c #285D78",
"b  c #355673",
"n  c #315874",
"m  c #325F7A",
"M  c #29607B",
"N  c #32637E",
"B  c #3A657F",
"V  c #455D71",
"C  c #415F7A",
"Z  c #51647E",
"A  c #2F6680",
"S  c #376680",
"D  c #396781",
"F  c #3B6A83",
"G  c #406780",
"H  c #426D86",
"J  c #576A84",
"K  c #457189",
"L  c #4C728A",
"P  c #517088",
"I  c #51788F",
"U  c #5C788F",
"Y  c #537C92",
"T  c #5A7E94",
"R  c #627B91",
"E  c #578197",
"W  c #5D8197",
"Q  c #5D8499",
"!  c #648499",
"~  c #658B9F",
"^  c #6C8A9E",
"/  c #628AA0",
"(  c #6B8DA1",
")  c #768EA1",
"_  c #7B8DA1",
"`  c #6F95A8",
"'  c #7790A2",
"]  c #7A9DAE",
"[  c #8496A8",
"{  c #819DAE",
"}  c #849FB0",
"|  c #89A0AF",
" . c #9FA7A9",
".. c #8CA3B3",
"X. c #92A6B6",
"o. c #98A5B4",
"O. c #95A8B7",
"+. c #94ACBA",
"@. c #99ABBA",
"#. c #9FB1BE",
"$. c #A2B0BD",
"%. c #B4B4B4",
"&. c #9FB3C0",
"*. c #A4B5C1",
"=. c #A5BBC6",
"-. c #AABBC6",
";. c #AEBEC9",
":. c #B1BBC7",
">. c #B6C4CE",
",. c #BAC4CE",
"<. c #B7C6D0",
"1. c #BDCAD3",
"2. c #C4C5C5",
"3. c #CBC6C4",
"4. c #CDC8C6",
"5. c gray79",
"6. c #D6CDC8",
"7. c #D7D0CC",
"8. c #D8D0CD",
"9. c #C4CDD5",
"0. c #C9CDD5",
"q. c #C5CFD8",
"w. c #C3D0D7",
"e. c #C6D2D9",
"r. c #CAD3DB",
"t. c #CEDADE",
"y. c #D2DADF",
"u. c #D4DCE2",
"i. c #DBDEE3",
"p. c #D6E1E4",
"a. c #DBE1E6",
"s. c #DEE3E9",
"d. c #E2E6EA",
"f. c #E5E9ED",
"g. c #EAECEE",
"h. c #EEEFF1",
"j. c #EEF2F3",
"k. c #F3F3F4",
"l. c #F7F7F9",
"z. c #F6F9FA",
"x. c #FFFFFF",
"c. c None",
/* pixels */
"c.c.c.c.c.c.c.c.c.c.c.c.c.c.c.c.c.c.c.c.c.c.c.c.c.c.c.c.c.c.c.c.c.c.c.c.c.c.c.c.c.c.c.c.c.c.c.c.c.c.c.c.c.c.c.c.c.c.c.c.c.c.c.c.",
"c.c.c.c.c.c.c.c.c.c.c.c.c.c.c.c.c.c.c.c.c.c.c.c.c.c.c.c.c.c.c.c.c.c.c.c.c.c.c.c.c.c.c.c.c.c.c.c.c.c.c.c.c.c.c.c.c.c.c.c.c.c.c.c.",
"c.c.c.c.c.c.c.c.c.c.c.c.c.c.c.c.c.c.c.c.c.c.c.c.c.c.c.c.c.c.c.c.c.c.c.c.c.c.c.c.c.c.c.c.c.c.c.c.c.c.c.c.c.c.c.c.c.c.c.c.c.c.c.c.",
"c.c.c.c.c.c.c.c.c.c.c.c.c.c.c.c.c.c.c.c.c.c.c.c.c.c.c.c.c.c.c.c.c.c.c.c.c.c.c.c.c.c.c.c.c.c.c.c.c.c.c.c.c.c.c.c.c.c.c.c.c.c.c.c.",
"c.c.c.c.c.c.c.c.c.c.c.c.c.c.c.c.c.c.c.c.c.c.c.c.c.c.c.c.c.c.c.c.c.c.c.c.c.c.c.c.c.c.c.c.c.c.c.c.c.c.c.c.c.c.c.c.c.c.c.c.c.c.c.c.",
"c.c.c.c.c.c.c.c.c.c.c.c.c.c.c.c.c.c.c.c.c.c.c.c.c.c.c.c.c.c.c.c.c.c.c.c.c.c.c.c.c.c.c.c.c.c.c.c.c.c.c.c.c.c.c.c.c.c.c.c.c.c.c.c.",
"c.c.c.c.c.c.c.c.c.c.c.c.c.c.c.c.c.c.c.c.c.c.c.c.c.c.c.c.c.c.c.c.c.c.c.c.c.c.c.c.c.c.c.c.c.c.c.c.c.c.c.c.c.c.c.c.c.c.c.c.c.c.c.c.",
"c.c.c.c.c.c.c.c.c.c.c.c.c.c.c.c.c.c.c.c.c.c.c.c.c.c.c.c.c.c.c.c.c.c.c.c.c.c.c.c.c.c.c.c.c.c.c.c.c.c.c.c.c.c.c.c.c.c.c.c.c.c.c.c.",
"c.c.c.c.c.c.c.c.c.c.c.c.c.c.c.c.c.c.c.c.c.c.c.c.c.c.c.c.c.c.c.c.c.c.c.c.c.c.c.c.c.c.c.c.c.c.c.c.c.c.c.c.c.c.c.c.c.c.c.c.c.c.c.c.",
"c.c.c.c.c.c.c.c.c.c.c.c.c.c.c.c.c.c.c.c.c.c.c.c.c.c.c.c.c.c.c.c.c.c.c.c.c.c.c.c.c.c.c.c.c.c.c.c.c.c.c.c.c.c.c.c.c.c.c.c.c.c.c.c.",
"c.c.c.c.c.c.c.c.c.c.c.c.c.c.c.c.c.c.c.c.c.c.c.c.c.c.c.c.c.c.c.c.c.c.c.c.c.c.c.c.c.c.c.c.c.c.c.c.c.c.c.c.c.c.c.c.c.c.c.c.c.c.c.c.",
"c.c.c.c.c.c.c.c.c.c.c.c.c.c.c.c.c.c.c.c.c.c.c.c.c.c.c.c.c.c.c.c.c.c.c.c.c.c.c.c.c.c.c.c.c.c.c.c.c.c.c.c.c.c.c.c.c.c.c.c.c.c.c.c.",
"c.c.c.c.c.c.c.c.c.c.c.c.c.c.c.c.c.c.c.c.c.c.c.c.c.c.c.c.c.c.c.c.c.c.c.c.c.c.c.c.c.c.c.c.c.c.c.c.c.c.c.c.c.c.c.c.c.c.c.c.c.c.c.c.",
"c.c.c.c.c.c.c.c.c.c.c.c.c.c.c.c.c.c.c.c.c.c.c.c.c.c.c.c.c.c.c.c.c.c.c.c.c.c.c.c.c.c.c.c.c.c.c.c.c.c.c.c.c.c.c.c.c.c.c.c.c.c.c.c.",
"c.c.c.c.c.c.c.c.c.c.c.c.c.c.c.c.c.c.c.c.c.c.c.c.c.c.c.c.c.c.c.c.c.c.c.c.c.c.c.c.c.c.c.c.c.c.c.c.c.c.c.c.c.c.c.c.c.c.c.c.c.c.c.c.",
"c.c.c.c.c.c.c.c.c.c.c.c.c.c.c.c.c.c.c.c.c.c.c.c.c.c.c.c.c.c.c.c.c.c.c.c.c.c.c.c.c.c.c.c.c.c.c.c.c.c.c.c.c.c.c.c.c.c.c.c.c.c.c.c.",
"c.c.c.c.c.c.c.c.c.c.c.c.c.c.c.c.c.c.c.c.c.c.c.c.c.c.c.c.c.c.c.c.c.c.c.c.c.c.c.c.c.c.c.c.c.c.c.c.c.c.c.c.c.c.c.c.c.c.c.c.c.c.c.c.",
"c.c.c.c.c.c.c.c.c.c.c.c.c.c.c.c.c.c.c.c.c.c.c.c.c.c.c.c.c.c.c.c.c.c.c.c.c.c.c.c.c.c.c.c.c.c.c.c.c.c.c.c.c.c.c.c.c.c.c.c.c.c.c.c.",
"c.c.c.c.c.c.c.c.c.c.c.c.c.c.c.c.c.c.c.c.c.c.c.c.c.c.c.c.c.c.c.c.c.c.c.c.c.c.c.c.c.c.c.c.c.c.c.c.c.c.c.c.c.c.c.c.c.c.c.c.c.c.c.c.",
"c.c.c.c.c.c.c.c.c.c.c.c.c.c.c.c.c.c.c.c.c.c.c.c.c.c.c.c.c.c.c.c.c.c.c.c.c.c.c.c.c.c.c.c.c.c.c.c.c.c.c.c.c.c.c.c.c.c.c.c.c.c.c.c.",
"c.c.c.c.c.c.s s s s s f f s s s s s s s s s s f s s s s s s s s s s s s s e s s s s s s s r s s s s s s s r s s s s r s s s s s ",
"c.c.c.c.c.+ 2 < : : 2 = < = 2 : 2 = 2 : 2 = 2 = = 4 f s s r s s s s s s s s s s s s s s s s s s s s s s s s s s s s s s s s s r ",
"c.c.c.c.c.V c D S S S S S S S S B B S S S S B S D x 8 s s s s s s s r s s s s r s s r s s s s s s s r s s s s e s u s s s s s r ",
"z.x.x.x.x.x.x.x.x.x.x.x.x.x.x.x.x.x.x.x.x.x.x.x.x.u.4 7 s s s s s s s s s s s s s s s s s s s s s s s s s s s s s s s s s s s r ",
"h.x.x.x.x.x.x.x.x.x.x.x.x.x.x.x.x.x.x.x.x.x.x.x.x.d.4 7 s u u u 8 u f s s s s s s u u e u e u u u s u e e s s r s s s u u e s r ",
"h.x.x.x.f.:.=.=.,.z.x.x.x.x.x.x.x.9.=.=.-.i.x.x.x.y.7 4 * < = : : = % 8 f s f 8 * = = 2 = : = : 8 g s 2 = 4 f s s s 7 = 2 q g r ",
"g.x.x._ 3 O o o @ j *.x.x.x.x.9.b $ o o O = U l.x.y.2 > O.r.r.e.r.>.( = 2 g 8 2 ..e.r.e.e.e.e.r.:.@ Q s.9.K * h s 7 5 >.u.#.3 8 ",
"k.x.! o % v K H r @ O #.x.x.q.$ + 4 H K N * o B x.a.@ #.x.x.x.x.x.x.x.r.; 5 * @.x.x.x.x.x.x.x.x.( @ 9 h.x.f.* 7 f + o.x.x.L : r ",
"x.9.$ = ^ x.x.x.f.D $ 3 l.x.c + x u.x.x.x.X.2 O ;.j.= a.x.:.Z Y P [ x.x.1.% = u.x.,.J Y Y T W I 4 f % N x.x...$ = m x.x...+ g r ",
"x.' O v x.x.x.x.x.u.: $ 9.k.2 $ -.x.x.x.x.x.K O Q d.= r.x.| . = = . ) x.x.S @ r.x.X.  = * * * = s s f + O.x.x.t . y.x.d.* 7 s r ",
"x./ O F x.x.x.x.x.f.w $ <.f.= * 9.x.x.x.x.x.~ o Y p.< r.x.+.* f f 2 t x.x.Q O r.x.O.o 4 = = = e f s s 7 * g.x.$.R x.x.G % g s r ",
"x.( O F x.x.x.x.x.i.7 $ 1.f.: * >.x.x.x.x.x.Q o E p.2 r.x.+.% s s 4 x x.x.Q O e.x.f.:.1.1.1.e.Y : s s f * D k.x.x.x...$ i s s r ",
"x.( O F x.x.x.x.x.a.7 $ 1.g.= * <.x.x.x.x.x.! o Y p.2 r.x.+.% s s 2 v x.x.E O r.x.x.x.x.x.x.x.{ $ s s s 4 % f.x.x.x.F @ h s s r ",
"x./ O F x.x.x.x.x.h.7 @ >.f.= = w.x.x.x.x.x.~ o Y u.1 r.x.O.% s s 4 d x.x.Q O r.x.9.J W W W ~ A 5 s s f @ *.x.d.9.x.f.> 4 s s r ",
"x.] O t k.x.x.x.x.>.* % r.z.2 @ ..x.x.x.x.x.N O / g.= r.x.+.$ u u $ n x.x.Y O e.x...  * * % % 4 h s g % L x.x.L + x.x.*.+ i s r ",
"x.a.% % F u.z.z.,.l + l x.x.L O 8 *.k.z.s.! = + e.j.= e.x...o : * ; r.x.z.9 = r.x.@.o 2 2 2 2 = 7 g 2 - h.x.9.% + ) x.x.L $ h r ",
"k.x...O + - u 7 = = c i.x.x.d.0 o @ e u 2 O o ^ x.t.= r.x.h.0.r.0.k.x.x.R % = y.x.h.0.r.r.r.u.9.t 4 @ -.x.x.k = i @ 0.x.k.- 4 r ",
"g.x.x.:.b 4 = 4 2 @ c l.x.x.x.f.R q = = 2 n o.x.x.e.= s.x.x.x.x.x.x.s.U % f : H k.x.x.x.x.x.x.x.<.. ^ x.x.' @ f f = l x.x.q.- 8 ",
"k.x.x.x.x.f.u.j.-.z ; R z.x.x.x.x.k.a.u.d.x.x.x.x.y.4 H T Y I Y Y K 5 * s s f = l Y Y Y Y Y Y Y ! e Y ! L 4 e s s f 2 D W ^ g 8 ",
"x.x.x.x.x.x.x.x.x.x.x.x.x.x.x.x.x.x.x.x.x.x.x.x.x.h.7 % * = * = * = 7 g s s s f 4 * * = * * = * < g 4 % = u f s s s s 2 % = f r ",
"%.5.2.2.3.4.3.4.3.8.8.8.4.3.4.4.3.3.3.3.3.3.3.3.6. .4 u s s s s s f s s s s s s s s s s s f s s s s s s s s s s s s s s s s s e ",
"c.c.c.c.c.1 < = < < < < < < < < < < < < < < < < 3 2 i s s g s g s s s s s s s s s g s g s s s g s s s i s s s s s s s i s g s s ",
"c.c.c.c.c.2 p p p p p a p p p p p p p p p p p p y a g g g g g g g g g g f s g g g g g g f s g g g g g g g g g g g g g g y A A w ",
"c.c.c.c.c.X , , , , , , , , , , , , , , , , , , , , , , , , # , , , , # & , , , # , , , & , , , , , , , , , , , , , # , % # # # ",
"c.c.c.c.c.c.c.c.c.c.c.c.c.c.c.c.c.c.c.c.c.c.c.c.c.c.c.c.c.c.c.c.c.c.c.c.c.c.c.c.c.c.c.c.c.c.c.c.c.c.c.c.c.c.c.c.c.c.c.c.c.c.c.c.",
"c.c.c.c.c.c.c.c.c.c.c.c.c.c.c.c.c.c.c.c.c.c.c.c.c.c.c.c.c.c.c.c.c.c.c.c.c.c.c.c.c.c.c.c.c.c.c.c.c.c.c.c.c.c.c.c.c.c.c.c.c.c.c.c.",
"c.c.c.c.c.c.c.c.c.c.c.c.c.c.c.c.c.c.c.c.c.c.c.c.c.c.c.c.c.c.c.c.c.c.c.c.c.c.c.c.c.c.c.c.c.c.c.c.c.c.c.c.c.c.c.c.c.c.c.c.c.c.c.c.",
"c.c.c.c.c.c.c.c.c.c.c.c.c.c.c.c.c.c.c.c.c.c.c.c.c.c.c.c.c.c.c.c.c.c.c.c.c.c.c.c.c.c.c.c.c.c.c.c.c.c.c.c.c.c.c.c.c.c.c.c.c.c.c.c.",
"c.c.c.c.c.c.c.c.c.c.c.c.c.c.c.c.c.c.c.c.c.c.c.c.c.c.c.c.c.c.c.c.c.c.c.c.c.c.c.c.c.c.c.c.c.c.c.c.c.c.c.c.c.c.c.c.c.c.c.c.c.c.c.c.",
"c.c.c.c.c.c.c.c.c.c.c.c.c.c.c.c.c.c.c.c.c.c.c.c.c.c.c.c.c.c.c.c.c.c.c.c.c.c.c.c.c.c.c.c.c.c.c.c.c.c.c.c.c.c.c.c.c.c.c.c.c.c.c.c.",
"c.c.c.c.c.c.c.c.c.c.c.c.c.c.c.c.c.c.c.c.c.c.c.c.c.c.c.c.c.c.c.c.c.c.c.c.c.c.c.c.c.c.c.c.c.c.c.c.c.c.c.c.c.c.c.c.c.c.c.c.c.c.c.c.",
"c.c.c.c.c.c.c.c.c.c.c.c.c.c.c.c.c.c.c.c.c.c.c.c.c.c.c.c.c.c.c.c.c.c.c.c.c.c.c.c.c.c.c.c.c.c.c.c.c.c.c.c.c.c.c.c.c.c.c.c.c.c.c.c.",
"c.c.c.c.c.c.c.c.c.c.c.c.c.c.c.c.c.c.c.c.c.c.c.c.c.c.c.c.c.c.c.c.c.c.c.c.c.c.c.c.c.c.c.c.c.c.c.c.c.c.c.c.c.c.c.c.c.c.c.c.c.c.c.c.",
"c.c.c.c.c.c.c.c.c.c.c.c.c.c.c.c.c.c.c.c.c.c.c.c.c.c.c.c.c.c.c.c.c.c.c.c.c.c.c.c.c.c.c.c.c.c.c.c.c.c.c.c.c.c.c.c.c.c.c.c.c.c.c.c.",
"c.c.c.c.c.c.c.c.c.c.c.c.c.c.c.c.c.c.c.c.c.c.c.c.c.c.c.c.c.c.c.c.c.c.c.c.c.c.c.c.c.c.c.c.c.c.c.c.c.c.c.c.c.c.c.c.c.c.c.c.c.c.c.c.",
"c.c.c.c.c.c.c.c.c.c.c.c.c.c.c.c.c.c.c.c.c.c.c.c.c.c.c.c.c.c.c.c.c.c.c.c.c.c.c.c.c.c.c.c.c.c.c.c.c.c.c.c.c.c.c.c.c.c.c.c.c.c.c.c.",
"c.c.c.c.c.c.c.c.c.c.c.c.c.c.c.c.c.c.c.c.c.c.c.c.c.c.c.c.c.c.c.c.c.c.c.c.c.c.c.c.c.c.c.c.c.c.c.c.c.c.c.c.c.c.c.c.c.c.c.c.c.c.c.c.",
"c.c.c.c.c.c.c.c.c.c.c.c.c.c.c.c.c.c.c.c.c.c.c.c.c.c.c.c.c.c.c.c.c.c.c.c.c.c.c.c.c.c.c.c.c.c.c.c.c.c.c.c.c.c.c.c.c.c.c.c.c.c.c.c.",
"c.c.c.c.c.c.c.c.c.c.c.c.c.c.c.c.c.c.c.c.c.c.c.c.c.c.c.c.c.c.c.c.c.c.c.c.c.c.c.c.c.c.c.c.c.c.c.c.c.c.c.c.c.c.c.c.c.c.c.c.c.c.c.c.",
"c.c.c.c.c.c.c.c.c.c.c.c.c.c.c.c.c.c.c.c.c.c.c.c.c.c.c.c.c.c.c.c.c.c.c.c.c.c.c.c.c.c.c.c.c.c.c.c.c.c.c.c.c.c.c.c.c.c.c.c.c.c.c.c.",
"c.c.c.c.c.c.c.c.c.c.c.c.c.c.c.c.c.c.c.c.c.c.c.c.c.c.c.c.c.c.c.c.c.c.c.c.c.c.c.c.c.c.c.c.c.c.c.c.c.c.c.c.c.c.c.c.c.c.c.c.c.c.c.c.",
"c.c.c.c.c.c.c.c.c.c.c.c.c.c.c.c.c.c.c.c.c.c.c.c.c.c.c.c.c.c.c.c.c.c.c.c.c.c.c.c.c.c.c.c.c.c.c.c.c.c.c.c.c.c.c.c.c.c.c.c.c.c.c.c.",
"c.c.c.c.c.c.c.c.c.c.c.c.c.c.c.c.c.c.c.c.c.c.c.c.c.c.c.c.c.c.c.c.c.c.c.c.c.c.c.c.c.c.c.c.c.c.c.c.c.c.c.c.c.c.c.c.c.c.c.c.c.c.c.c.",
"c.c.c.c.c.c.c.c.c.c.c.c.c.c.c.c.c.c.c.c.c.c.c.c.c.c.c.c.c.c.c.c.c.c.c.c.c.c.c.c.c.c.c.c.c.c.c.c.c.c.c.c.c.c.c.c.c.c.c.c.c.c.c.c."
};
